<svg width="23" height="22" viewBox="0 0 23 22" fill="none" xmlns="http://www.w3.org/2000/svg">
<path id="Vector" d="M0.185547 22L1.73196 16.3506C0.777713 14.6969 0.276297 12.8223 0.277214 10.9001C0.279964 4.89042 5.17038 0 11.1791 0C14.095 0.000916667 16.8322 1.13667 18.891 3.19733C20.949 5.258 22.082 7.997 22.081 10.9102C22.0783 16.9208 17.1879 21.8112 11.1791 21.8112C9.35496 21.8103 7.55738 21.3528 5.96513 20.4838L0.185547 22ZM6.2328 18.5103C7.76913 19.4223 9.2358 19.9687 11.1755 19.9696C16.1695 19.9696 20.2376 15.9051 20.2404 10.9083C20.2422 5.9015 16.1933 1.8425 11.1828 1.84067C6.18513 1.84067 2.11971 5.90517 2.11788 10.901C2.11696 12.9406 2.71463 14.4677 3.71838 16.0655L2.80263 19.4095L6.2328 18.5103ZM16.6709 13.5016C16.603 13.3879 16.4215 13.3201 16.1484 13.1835C15.8761 13.0469 14.5369 12.3878 14.2866 12.2971C14.0373 12.2063 13.8558 12.1605 13.6734 12.4337C13.4919 12.7059 12.9694 13.3201 12.8108 13.5016C12.6522 13.6831 12.4927 13.706 12.2205 13.5694C11.9482 13.4328 11.07 13.1459 10.0296 12.2173C9.22021 11.495 8.67296 10.6031 8.51438 10.3299C8.3558 10.0577 8.49788 9.91008 8.63355 9.77442C8.75638 9.6525 8.9058 9.45633 9.04238 9.29683C9.1808 9.13917 9.22571 9.0255 9.31738 8.84308C9.40813 8.66158 9.36321 8.50208 9.29446 8.3655C9.22571 8.22983 8.68121 6.88875 8.4548 6.34333C8.23296 5.81258 8.00838 5.88408 7.84155 5.87583L7.31905 5.86667C7.13755 5.86667 6.84238 5.9345 6.59305 6.20767C6.34371 6.48083 5.63971 7.139 5.63971 8.48008C5.63971 9.82117 6.61596 11.1164 6.75163 11.2979C6.88821 11.4794 8.67205 14.2313 11.4046 15.411C12.0545 15.6915 12.5624 15.8593 12.9575 15.9848C13.6101 16.192 14.2041 16.1627 14.6735 16.093C15.1969 16.0151 16.285 15.4339 16.5123 14.7978C16.7396 14.1607 16.7396 13.6153 16.6709 13.5016Z" fill="#FFFEFE"/>
</svg>
